<svg width="400" height="400" viewBox="0 0 400 400" fill="none" xmlns="http://www.w3.org/2000/svg">
<path d="M396.207 247.487L297.506 276.028C296.944 276.169 296.523 276.45 296.171 276.872C285.353 288.822 276.15 296.766 274.043 298.594C267.931 303.796 260.344 306.608 252.336 306.608H216.649V270.123H245.03C245.732 270.123 246.435 269.842 246.997 269.42L250.65 266.046C252.195 264.64 254.092 262.882 256.34 260.633C257.675 259.297 259.15 257.891 260.555 256.274C262.03 254.868 263.435 253.251 264.77 251.705C267.018 249.315 269.125 246.784 271.373 244.183C272.989 242.425 274.464 240.457 275.869 238.489C277.485 236.591 279.031 234.552 280.506 232.513C281.56 230.967 282.754 229.35 283.948 227.663C285.002 226.046 286.056 224.359 286.969 222.742C289.779 218.383 292.097 213.743 294.134 209.104C295.188 206.854 295.961 204.534 296.733 202.214C297.506 199.824 298.209 197.645 298.7 195.255C299.895 189.701 300.176 184.148 299.614 178.594C299.473 176.837 299.333 175.149 298.981 173.533V173.251C298.841 172.127 298.56 170.861 298.209 169.666C297.014 164.253 295.118 158.84 292.799 153.568C292.027 151.599 291.043 149.631 290.2 147.733C288.093 143.796 285.845 139.789 283.316 135.993C282.403 134.587 281.349 133.111 280.436 131.634C278.469 128.612 276.221 125.729 274.113 122.917C272.497 120.808 270.671 118.699 268.985 116.591C267.229 114.482 265.543 112.513 263.786 110.545C257.605 103.515 251.071 97.188 245.311 91.775C244.257 90.7206 243.063 89.6661 241.869 88.6116C237.373 84.5343 233.298 80.949 229.856 78.2074C228.1 76.8717 226.695 75.6063 225.36 74.4815C223.674 73.2162 222.339 72.1617 221.426 71.4587C221.145 71.2478 220.864 71.1072 220.583 71.0369L216.79 69.9824V38.4886C216.79 33.3568 214.752 28.717 211.451 25.413C208.149 22.0387 203.512 20 198.455 20C188.339 20 180.119 28.2953 180.119 38.5589V59.7891L178.223 59.2267L173.024 57.7504L168.318 56.4148C168.318 56.4148 168.247 56.4148 168.177 56.4148H168.107L132.42 46.7135C130.875 46.2917 129.54 47.9789 130.313 49.3849L136.003 59.9297C136.565 61.2654 137.338 62.6011 137.97 64.007C138.883 65.9051 139.867 67.8735 140.71 69.8418C141.482 71.5993 142.325 73.2865 143.238 75.1142C145.065 79.1916 147.102 83.5501 149.069 88.3304C150.404 91.4939 151.739 94.6573 152.933 97.9613C156.094 106.257 159.185 115.114 161.784 124.253C162.698 127.135 163.4 129.947 164.173 132.83L164.524 134.446C165.578 138.664 166.491 142.882 167.194 147.1C167.756 149.982 168.247 152.794 168.528 155.536C168.95 158.699 169.301 161.863 169.442 165.026C169.723 167.909 169.863 170.931 169.863 173.884C169.863 181.265 169.231 188.436 167.615 195.185C167.053 197.153 166.561 199.262 165.859 201.23C165.227 203.62 164.243 205.94 163.33 208.471C162.768 209.877 162.276 211.353 161.574 212.83C158.272 220.773 154.197 228.647 149.912 236.098C143.73 247.065 137.478 256.696 133.123 262.882C132.49 263.796 131.928 264.569 131.437 265.343C130.102 267.241 131.507 269.982 133.825 269.982H179.909V306.468H133.263C120.759 306.468 109.168 299.367 103.548 287.979C100.667 282.285 99.5434 276.028 100.176 269.842C100.316 268.014 98.9814 266.257 97.0847 266.257H2.88023C1.26449 266.257 0 267.592 0 269.139V271.107C0 331.283 48.5423 380 108.465 380H277.555C318.089 380 336.214 332.759 359.958 299.719C369.231 286.784 391.64 276.52 398.174 273.708C399.227 273.216 400 272.162 400 270.967V250.088C399.86 248.401 398.033 246.995 396.207 247.487Z" fill="black"/>
<path d="M25.9922 230H113.291C114.281 230 115.2 229.508 115.695 228.735C116.826 226.978 117.886 225.222 118.876 223.395C126.439 210.817 133.154 197.185 135.558 187.066C141.283 162.612 129.055 123.332 114.846 91.7113C113.927 89.6032 110.959 89.3924 109.757 91.3599L24.8612 223.395L23.4475 225.573C22.2458 227.47 23.5889 230 25.9922 230Z" fill="black"/>
</svg>
